<?xml version="1.0" standalone="no"?>
<!DOCTYPE svg PUBLIC "-//W3C//DTD SVG 20010904//EN"
 "http://www.w3.org/TR/2001/REC-SVG-20010904/DTD/svg10.dtd">
<svg version="1.0" xmlns="http://www.w3.org/2000/svg"
 width="256.000000pt" height="256.000000pt" viewBox="0 0 256.000000 256.000000"
 preserveAspectRatio="xMidYMid meet">

<g transform="translate(0.000000,256.000000) scale(0.100000,-0.100000)"
fill="#000000" stroke="none">
<path d="M515 2386 c-85 -21 -147 -57 -215 -125 -70 -71 -111 -143 -129 -229
-15 -74 -15 -1430 0 -1504 19 -89 58 -158 128 -228 71 -70 143 -111 229 -129
74 -15 1430 -15 1504 0 87 18 158 59 228 129 70 70 111 141 129 228 15 74 15
1430 0 1504 -18 86 -59 158 -129 229 -70 70 -139 109 -228 128 -78 16 -1449
14 -1517 -3z m1581 -99 c77 -36 154 -113 191 -192 l28 -60 0 -755 0 -755 -28
-60 c-37 -79 -114 -156 -191 -192 l-61 -28 -755 0 -755 0 -61 28 c-77 36 -154
113 -191 192 l-28 60 0 755 0 755 28 60 c32 69 104 147 162 177 91 48 78 47
860 45 l740 -2 61 -28z"/>
<path d="M429 2173 c-53 -32 -75 -112 -48 -166 6 -12 48 -59 92 -104 l81 -83
-92 -93 -92 -94 0 -53 c0 -48 4 -56 39 -91 33 -33 45 -39 80 -39 57 0 73 10
168 103 l83 81 88 -86 c48 -48 100 -90 116 -94 99 -25 187 63 162 162 -4 16
-46 68 -94 116 l-86 88 81 83 c93 95 103 111 103 168 0 35 -6 47 -39 80 -33
33 -45 39 -80 39 -57 0 -73 -10 -168 -103 l-83 -82 -82 82 c-46 44 -93 86
-105 92 -31 16 -94 13 -124 -6z m191 -158 c59 -58 113 -105 120 -105 7 0 61
47 120 105 59 58 113 105 119 105 22 0 60 -47 55 -67 -3 -11 -50 -64 -105
-119 -54 -54 -99 -106 -99 -114 0 -8 45 -60 99 -114 55 -55 102 -108 105 -119
6 -26 -35 -67 -61 -61 -11 3 -64 50 -119 105 -54 54 -106 99 -114 99 -8 0 -60
-45 -114 -99 -55 -55 -108 -102 -119 -105 -20 -5 -67 33 -67 55 0 6 47 60 105
119 58 59 105 113 105 120 0 7 -47 61 -105 120 -58 59 -105 115 -105 124 0 21
35 56 56 56 9 0 65 -47 124 -105z"/>
<path d="M1495 2158 c-38 -35 -53 -85 -41 -134 4 -16 46 -68 94 -116 l86 -88
-86 -88 c-48 -48 -90 -100 -94 -116 -25 -99 63 -187 162 -162 16 4 68 46 116
94 l88 86 83 -81 c95 -93 111 -103 168 -103 35 0 47 6 80 39 35 35 39 43 39
91 l0 53 -92 94 -92 93 81 83 c92 93 103 111 103 162 0 71 -54 125 -125 125
-51 0 -69 -11 -162 -103 l-83 -81 -93 92 c-94 92 -94 92 -146 92 -44 0 -56 -5
-86 -32z m205 -143 c59 -58 113 -105 120 -105 7 0 61 47 120 105 59 58 115
105 124 105 9 0 25 -9 36 -20 11 -11 20 -27 20 -36 0 -9 -47 -65 -105 -124
-58 -59 -105 -113 -105 -120 0 -7 47 -61 105 -120 58 -59 105 -113 105 -119 0
-22 -47 -60 -67 -55 -11 3 -64 50 -119 105 -54 54 -105 99 -113 99 -8 0 -63
-47 -121 -105 -59 -58 -112 -105 -119 -105 -15 0 -61 46 -61 61 0 7 47 60 105
119 58 58 105 112 105 120 0 8 -47 62 -105 120 -58 59 -105 112 -105 119 0 15
45 61 61 61 6 0 60 -47 119 -105z"/>
<path d="M1114 1020 c-199 -52 -339 -181 -364 -336 -10 -62 -1 -94 28 -94 24
0 42 19 42 45 0 12 7 44 15 73 30 101 153 201 290 237 76 19 234 19 310 0 171
-45 305 -182 305 -311 0 -13 9 -28 21 -35 18 -9 25 -8 40 8 16 16 18 25 9 76
-41 252 -385 419 -696 337z"/>
</g>
</svg>
